<svg xmlns="http://www.w3.org/2000/svg" xmlns:xlink="http://www.w3.org/1999/xlink" width="393" height="562" viewBox="0 0 393 562">
  <defs>
    <clipPath id="clip-path">
      <rect id="Rectangle_32" data-name="Rectangle 32" width="393" height="562" transform="translate(1527 518)" fill="#fff" stroke="#707070" stroke-width="1"/>
    </clipPath>
    <linearGradient id="linear-gradient" x1="0.5" x2="0.5" y2="1" gradientUnits="objectBoundingBox">
      <stop offset="0" stop-color="#fff"/>
      <stop offset="1" stop-color="#fff"/>
    </linearGradient>
  </defs>
  <g id="Mask_Group_7" data-name="Mask Group 7" transform="translate(-1527 -518)" clip-path="url(#clip-path)">
    <g id="Group_28" data-name="Group 28" transform="translate(1441.493 574.056) rotate(-14)" opacity="0.332">
      <path id="Union_1" data-name="Union 1" d="M-9900.524-3089.472q-4.737-2.775-9.424-5.811l45.941-79.57c53.048,29.58,104.461,19.943,140.517-6.671l-248.563-143.508,48.826-84.571,249.7,143.819,15.521,8.96,78.364,45.138-.07.065.07.04c-23.967,82.762-119.779,149.137-218.4,149.14C-9832.866-3062.439-9868.037-3070.716-9900.524-3089.472Zm5.066-332.994-16.21-9.359-77.682-44.742.07-.065-.067-.04c32.43-111.988,196.405-193.971,320.883-122.108q4.749,2.764,9.424,5.811l-45.943,79.574c-53.046-29.583-104.459-19.946-140.513,6.669l248.566,143.508-48.828,84.571Z" transform="translate(10056.171 3709.524)" fill="url(#linear-gradient)"/>
    </g>
  </g>
</svg>
